<svg fill="none" height="350" viewBox="0 0 465 350" width="465" xmlns="http://www.w3.org/2000/svg" xmlns:xlink="http://www.w3.org/1999/xlink"><filter id="a" color-interpolation-filters="sRGB" filterUnits="userSpaceOnUse" height="173.383" width="289.737" x="74.5161" y="91.2334"><feFlood flood-opacity="0" result="BackgroundImageFix"/><feBlend in="SourceGraphic" in2="BackgroundImageFix" mode="normal" result="shape"/><feColorMatrix in="SourceAlpha" result="hardAlpha" type="matrix" values="0 0 0 0 0 0 0 0 0 0 0 0 0 0 0 0 0 0 127 0"/><feOffset dy="-8.34905"/><feComposite in2="hardAlpha" k2="-1" k3="1" operator="arithmetic"/><feColorMatrix type="matrix" values="0 0 0 0 0.319306 0 0 0 0 0.841586 0 0 0 0 0.870833 0 0 0 1 0"/><feBlend in2="shape" mode="normal" result="effect1_innerShadow_1703_2089"/></filter><g filter="url(#a)"><rect fill="#fff" height="171.188" rx="17.7417" width="287.542" x="75.6138" y="92.3311"/></g><rect height="171.188" rx="17.7417" stroke="#034ea6" stroke-linecap="round" stroke-linejoin="round" stroke-miterlimit="10" stroke-width="2.19539" width="287.542" x="75.6138" y="92.3311"/><path d="m307.242 247.131c-4.496-5.574-12.596-6.062-22.595-10.156 7.521-2.172 22.559-7.563 43.368.971 20.808 8.535 16.631 19.592 11.837 24.445l-39.862-6.157c7.684-.263 10.668-4.869 7.252-9.103z" fill="#51d7de"/><path d="m76.6775 239.783c15.2066 22.225 57.1925-41.769 75.0855-74.9l-28.962 81.991c-8.159 8.16-30.3008 14.679-39.0308 9.488-8.4648-1.751-7.0927-12.485-7.0927-16.579z" fill="#51d7de"/><circle cx="101.061" cy="115.105" fill="#51d7de" r="7.67621"/><circle cx="124.264" cy="115.105" fill="#034ea6" r="7.67621"/><path clip-rule="evenodd" d="m181.565 40.565c-11.692-.239-21.288 9.1737-21.273 20.8683l.037 30.0014c.014 11.5733 9.441 20.9363 21.014 20.8723l87.168-.483 14.211 14.211c1.998 1.997 5.219 2.045 7.271.108l15.377-14.523 57.034-.316.001-15.3704 14.583-17.4109c11.248-13.4297 1.918-33.9241-15.608-34.2823z" fill="#034ea6" fill-rule="evenodd"/><path clip-rule="evenodd" d="m179.28 34.3205c-10.375.0165-18.762 8.4404-18.732 18.8152l.098 34.7228c.029 10.3749 8.464 18.7715 18.839 18.7555l89.9-.143 13.299 13.859c2.062 2.148 5.497 2.142 7.547-.012l13.221-13.902 90.148-.143c10.375-.017 18.762-8.4406 18.732-18.8154l-.098-34.7228c-.03-10.3749-8.464-18.7719-18.839-18.7554z" fill="#fff" fill-rule="evenodd"/><path d="m160.548 53.1357-1.098.0031zm18.732-18.8152-.002-1.0977zm-18.634 53.538 1.098-.0031zm18.839 18.7555.001 1.098zm89.9-.143.792-.76c-.208-.217-.495-.338-.794-.338zm13.299 13.859.792-.76zm7.547-.012.795.756zm13.221-13.902-.002-1.097c-.3 0-.587.123-.794.341zm90.148-.143.002 1.097zm18.732-18.8154-1.097.0031zm-.098-34.7228-1.098.0031zm-18.839-18.7554-.001-1.0977zm-231.75 19.1532c-.027-9.7681 7.868-17.6989 17.637-17.7144l-.004-2.1954c-10.982.0175-19.859 8.9344-19.828 19.916zm.099 34.7228-.099-34.7228-2.195.0062.098 34.7228zm17.739 17.6606c-9.769.016-17.712-7.8915-17.739-17.6606l-2.196.0062c.031 10.9806 8.958 19.8674 19.938 19.8504zm89.9-.143-89.9.143.003 2.196 89.9-.144zm14.093 14.197-13.299-13.859-1.584 1.52 13.299 13.859zm5.959-.009c-1.617 1.7-4.33 1.706-5.959.009l-1.584 1.52c2.494 2.599 6.652 2.593 9.134-.016zm13.221-13.901-13.221 13.901 1.591 1.513 13.221-13.901zm90.942-.485-90.148.144.004 2.195 90.148-.144zm17.637-17.7143c.027 9.7681-7.869 17.6993-17.637 17.7143l.004 2.195c10.981-.017 19.859-8.9339 19.828-19.9155zm-.099-34.7228.099 34.7228 2.195-.0062-.098-34.7229zm-17.739-17.6608c9.769-.0156 17.712 7.8916 17.739 17.6608l2.196-.0063c-.032-10.9805-8.958-19.8674-19.938-19.8499zm-214.115.3411 214.115-.3411-.003-2.1954-214.116.3411z" fill="#034ea6"/><rect fill="#51d7de" height="32.5197" rx="16.2599" transform="matrix(.99999774 -.00212436 .00212436 .99999774 -.111131 .38258)" width="212.772" x="180.036" y="52.5039"/><g fill="#fff"><circle cx="199.005" cy="68.536" r="5.62122" transform="matrix(.99999774 -.00212436 .00212436 .99999774 -.145146 .422913)"/><circle cx="219.459" cy="68.7782" r="5.62122" transform="matrix(.99999774 -.00212436 .00212436 .99999774 -.145615 .466365)"/><circle cx="239.913" cy="68.7343" r="5.62122" transform="matrix(.99999774 -.00212436 .00212436 .99999774 -.145475 .509817)"/><circle cx="260.366" cy="68.4061" r="5.62122" transform="matrix(.99999774 -.00212436 .00212436 .99999774 -.144732 .553266)"/><circle cx="280.819" cy="68.3622" r="5.62122" transform="matrix(.99999774 -.00212436 .00212436 .99999774 -.144592 .596715)"/><circle cx="301.272" cy="68.3192" r="5.62122" transform="matrix(.99999774 -.00212436 .00212436 .99999774 -.144455 .640165)"/><circle cx="321.725" cy="68.2948" r="5.62122" transform="matrix(.99999774 -.00212436 .00212436 .99999774 -.144357 .683614)"/><rect height="11.6781" rx="3.13089" width="15.9418" x="364.295" y="65.3838"/></g><path d="m376.647 62.6362v4.3813h-8.762v-4.3813c0-2.4197 1.961-4.3813 4.381-4.3813s4.381 1.9616 4.381 4.3813z" stroke="#fff" stroke-width="2.19539"/><path d="m209.172 172.532c3.718-5.593.184-11.023-2.466-12.485-.871-.376-1.462-1.643-3.591-1.154-.136-.075-.3-.133-.489-.17-4.252-1.202-11.761 3.348-13.344 2.988-2.652-.602-19.97-1.889-28.244-.89-8.275.999-9.944 7.072-14.549 19.02-5.676 14.724-14.045 29.631-18.1 36.771-3.243 5.712-27.404 41.742-31.2811 46.253l46.0461.65c1.646-8.282 4.329-27.198 12.819-31.71 7.423-3.944 9.392-3.446 17.049-7.571 4.761-2.565 11.054-10.313 12.569-14.045 3.079 3.511 8.372 7.1 12.283 4.404 3.631-2.503 1.245-6.973-.014-8.446 1.457.688 3.244.797 5.687-.144 3.373-1.299 3.75-5.728 1.401-11.175s-5.54-10.533-5.54-10.533z" fill="#fff"/><path d="m190.665 196.061c.427-2.248 4.423-6.879 8.743-11.766m-8.743 11.766c.421 1.346 1.738 4.648 3.532 6.842 1.118 1.366 2.214 2.561 3.663 3.244m-7.195-10.086c-.526 2.759-2.106 6.817-5.074 14.128m17.524-51.296c-4.137-1.74-12.187 3.192-13.833 2.818-2.652-.602-19.97-1.889-28.244-.89-8.275.999-9.944 7.072-14.549 19.02-5.676 14.724-14.045 29.631-18.1 36.771-3.243 5.712-27.404 41.742-31.2811 46.253l46.0461.65c1.646-8.282 4.329-27.198 12.819-31.71 7.423-3.944 9.392-3.446 17.049-7.571 4.761-2.565 11.054-10.313 12.569-14.045m17.524-51.296c2.129-.489 2.72.778 3.591 1.154 2.65 1.462 6.184 6.892 2.466 12.485l-9.764 11.763m3.707-25.402c-1.446-.796-6.01.322-11.089 7.487-6.349 8.957-18.11 23.765-33.088 27.118m40.47-9.203s3.191 5.086 5.54 10.533 1.972 9.876-1.401 11.175c-2.443.941-4.23.832-5.687.144m0 0c1.259 1.473 3.645 5.943.014 8.446-3.911 2.696-9.204-.893-12.283-4.404" stroke="#034ea6" stroke-linecap="round" stroke-linejoin="round" stroke-miterlimit="10" stroke-width="2.19539"/><path d="m169.405 178.89c-8.817 2.779-11.824 14.486-11.431 14.128 9.748-.806 21.646-11.302 25.845-16.492-3.038.237-7.359.141-14.414 2.364z" fill="#034ea6"/><rect height="71.2311" rx="8.41119" style="fill:#fff;stroke:#034ea6;stroke-width:2.19539;stroke-miterlimit:10;stroke-linecap:round;stroke-linejoin:round" transform="matrix(.95232234 -.30509368 .30509368 .95232234 -34.834727 62.743396)" width="71.2311" x="183.333" y="142.827"/><path clip-rule="evenodd" d="m189.97 142.041c.056.592.177 1.188.366 1.778l15.938 49.749c1.417 4.424 6.152 6.861 10.576 5.444l49.749-15.938c1.075-.344 2.032-.884 2.845-1.568.984 3.85-1.192 7.849-5.027 9.077l-51.586 16.527c-3.981 1.275-8.243-.918-9.519-4.9l-16.489-51.47c-1.073-3.35.31-6.898 3.147-8.699z" fill="#51d7de" fill-rule="evenodd"/><path clip-rule="evenodd" d="m234.066 166.707c2.203-2.461 3.08-5.992 2-9.364-1.622-5.062-7.041-7.851-12.103-6.23-5.062 1.622-7.851 7.041-6.229 12.103 1.081 3.374 3.848 5.738 7.072 6.459l3.881 12.113 9.26-2.966z" fill="#034ea6" fill-rule="evenodd"/><path d="m208.973 172.785c-4.289 4.459-10.89 12.635-13.655 16.166l-12.695-10.486c3.038-3.083 9.382-10.707 12.46-14.379 3.878-4.627 12.132-10.981 16.448-6.332 4.094 4.408 2.802 9.456-2.558 15.031z" fill="#fff"/><path d="m195.318 188.949c2.764-3.531 8.181-9.899 12.469-14.359 5.361-5.574 8.494-12.954 4.066-16.807-5.229-4.551-11.445-.044-16.573 6.166-3.05 3.693-9.759 11.201-12.797 14.283" stroke="#034ea6" stroke-linecap="round" stroke-linejoin="round" stroke-miterlimit="10" stroke-width="2.19539"/><path d="m290.108 224.6c-4.349-.888-10.008-.68-11.595 3.395-1.687 4.327 3.712 9.047 17.508 9.979 13.763.969 18.849 8.902 30.01 8.873 16.93-.043 23.093 62.789 23.093 62.789h46.619v-1.217s-31-72.892-38.878-80.593c-7.878-7.7-24.966-30.185-24.966-30.185s-9.555-14.811-13.172-16.055c-3.616-1.243-15.591-1.274-15.591-1.274s-10.468-6.995-16.002-7.44c-4.338-.348-6.429 4.648-.752 9.284 0 0-4.578 3.557-3.762 7.179.817 3.621 4.943 3.699 4.943 3.699s2.175 7.175 8.078 5.257c6.66-2.164 10.276.877 10.276.877s12.591 13.107 7.92 20.094c-10.85 9.626-19.379 6.226-23.729 5.338z" fill="#fff"/><path d="m303.136 180.312s11.975.031 15.591 1.274c3.617 1.244 13.172 16.055 13.172 16.055s17.088 22.485 24.966 30.185c7.878 7.701 38.878 80.593 38.878 80.593v1.217h-46.619s-6.163-62.832-23.093-62.789c-11.161.029-16.247-7.904-30.01-8.873-13.796-.932-19.195-5.652-17.508-9.979 1.587-4.075 7.246-4.283 11.595-3.395 4.35.888 12.879 4.288 23.729-5.338 4.671-6.987-7.92-20.094-7.92-20.094m-2.781-18.856s-10.468-6.995-16.002-7.44c-4.338-.348-6.429 4.648-.752 9.284m16.754-1.844c3.109 2.503 9.796 7.84 11.67 9.164s6.225 8.626 8.166 12.111m-36.59-19.431s-4.578 3.557-3.762 7.179c.817 3.621 4.943 3.699 4.943 3.699m-1.181-10.878c2.113 1.185 5.894 4.622 9.659 7.997m-8.478 2.881s2.175 7.175 8.078 5.257c6.66-2.164 10.276.877 10.276.877m-18.354-6.134c1.347-1.042 4.928-3.077 8.478-2.881m9.876 9.015c-1.636-1.523-3.003-2.94-7.473-6.876-.789-.695-1.595-1.416-2.403-2.139" stroke="#034ea6" stroke-linecap="round" stroke-linejoin="round" stroke-miterlimit="10" stroke-width="2.19539"/><path d="m371.744 255.372c-12.632 11.504-25.948 14.282-31.202 13.608l3.187 9.093c14.046-.662 28.205-8.211 32.523-12.653z" fill="#034ea6"/><path d="m303.212 309.713h136.994" stroke="#034ea6" stroke-linecap="round" stroke-linejoin="round" stroke-miterlimit="10" stroke-width="2.19539"/></svg>